<?xml version="1.0" standalone="no"?>
<!DOCTYPE svg PUBLIC "-//W3C//DTD SVG 20010904//EN"
 "http://www.w3.org/TR/2001/REC-SVG-20010904/DTD/svg10.dtd">
<svg version="1.0" xmlns="http://www.w3.org/2000/svg"
 width="200.000000pt" height="200.000000pt" viewBox="0 0 200.000000 200.000000"
 preserveAspectRatio="xMidYMid meet">
<metadata>
Created by potrace 1.11, written by Peter Selinger 2001-2013
</metadata>
<g transform="translate(0.000000,200.000000) scale(0.100000,-0.100000)"
fill="#000000" stroke="none">
<path d="M114 1666 c-67 -30 -64 4 -64 -669 l0 -609 28 -27 c27 -27 30 -28
181 -34 85 -4 478 -7 873 -7 773 0 766 0 802 51 19 27 21 71 5 102 -7 12 -95
138 -196 279 -119 167 -182 262 -177 270 5 7 86 117 180 244 95 127 177 241
183 252 30 57 3 130 -56 153 -14 5 -368 9 -876 9 -695 -1 -858 -3 -883 -14z
m756 -77 c61 -18 131 -78 162 -138 23 -44 28 -66 28 -125 -1 -111 -47 -189
-142 -237 -70 -36 -64 -70 18 -100 58 -22 123 -74 154 -124 41 -66 43 -212 4
-288 -31 -58 -104 -125 -163 -149 -54 -22 -69 -23 -419 -26 -269 -2 -367 0
-378 9 -12 10 -14 102 -14 588 0 435 3 580 12 589 16 16 684 17 738 1z m994
-6 c8 -20 11 -15 -223 -331 -117 -157 -171 -237 -167 -248 3 -9 94 -139 202
-290 119 -166 194 -280 192 -291 -3 -17 -26 -18 -378 -18 -429 0 -408 -6 -342
89 54 76 77 163 69 260 -8 115 -58 204 -143 256 -19 12 -34 29 -34 37 0 9 16
34 36 56 58 64 78 119 79 217 0 92 -17 148 -61 207 -24 32 -30 54 -17 66 3 4
181 7 394 7 355 0 387 -1 393 -17z"/>
</g>
</svg>
